{
	"asset":{
		"generator":"Khronos glTF Blender I/O v3.6.28",
		"version":"2.0"
	},
	"extensionsUsed":[
		"KHR_materials_specular",
		"KHR_materials_ior"
	],
	"scene":0,
	"scenes":[
		{
			"name":"Scene",
			"nodes":[
				0
			]
		}
	],
	"nodes":[
		{
			"mesh":0,
			"name":"coin"
		}
	],
	"materials":[
		{
			"doubleSided":true,
			"extensions":{
				"KHR_materials_specular":{
					"specularColorFactor":[
						2.0472111648525395,
						1.229920685109474,
						0.7069886468096386
					]
				},
				"KHR_materials_ior":{
					"ior":1.4500000476837158
				}
			},
			"name":"material-coin",
			"pbrMetallicRoughness":{
				"baseColorFactor":[
					0.8000000715255737,
					0.3121464252471924,
					0,
					1
				],
				"metallicFactor":0.6000000238418579,
				"roughnessFactor":0.20000000298023224
			}
		}
	],
	"meshes":[
		{
			"name":"Cylinder",
			"primitives":[
				{
					"attributes":{
						"POSITION":0,
						"NORMAL":1,
						"TEXCOORD_0":2,
						"TEXCOORD_1":3
					},
					"indices":4,
					"material":0
				}
			]
		}
	],
	"accessors":[
		{
			"bufferView":0,
			"componentType":5126,
			"count":1413,
			"max":[
				0.3161224126815796,
				0.3161224126815796,
				0.07616262137889862
			],
			"min":[
				-0.3161224126815796,
				-0.3161224126815796,
				-0.07616262137889862
			],
			"type":"VEC3"
		},
		{
			"bufferView":1,
			"componentType":5126,
			"count":1413,
			"type":"VEC3"
		},
		{
			"bufferView":2,
			"componentType":5126,
			"count":1413,
			"type":"VEC2"
		},
		{
			"bufferView":3,
			"componentType":5126,
			"count":1413,
			"type":"VEC2"
		},
		{
			"bufferView":4,
			"componentType":5123,
			"count":3780,
			"type":"SCALAR"
		}
	],
	"bufferViews":[
		{
			"buffer":0,
			"byteLength":16956,
			"byteOffset":0,
			"target":34962
		},
		{
			"buffer":0,
			"byteLength":16956,
			"byteOffset":16956,
			"target":34962
		},
		{
			"buffer":0,
			"byteLength":11304,
			"byteOffset":33912,
			"target":34962
		},
		{
			"buffer":0,
			"byteLength":11304,
			"byteOffset":45216,
			"target":34962
		},
		{
			"buffer":0,
			"byteLength":7560,
			"byteOffset":56520,
			"target":34963
		}
	],
	"buffers":[
		{
			"byteLength":64080,
			"uri":"data:application/octet-stream;base64,"
		}
	]
}
